<svg class="svg-logo" version="1.1" xmlns="http://www.w3.org/2000/svg" xmlns:xlink="http://www.w3.org/1999/xlink" x="0px" y="0px" viewBox="0 0 841.9 841.9" xml:space="preserve">
    <g>
        <g>
            <path fill="none" stroke-width="10" stroke="#4b3621" d="M332.1,38.6c-0.4-0.2-1-0.5-1.3-0.7c-18-11.2-39.3-14.5-59.9-9.6c-1.5,0.4-3.1,1-4.5,1.5
c-18.3,5.5-33.9,17-44.3,33.7c-8.2,13.3-12.2,28.2-12,43.4c0.2,5.7,0.8,11.5,2,17.1c5,20.5,17.6,38.1,35.7,49.2
c10,6.1,20.8,9.9,31.9,11.1c0.5,0.2,1.2,0.1,1.7,0.2c2.1,0.2,4.5,0,6.7-0.7c10.2-3,16.1-13.6,13.2-23.9
c-2.2-7.7-8.7-12.9-15.9-13.9c-0.3-0.1-0.5,0-0.6,0c-16.6-1.9-31-14-35.1-31.1c-1.6-6.8-1.3-13.4,0.3-19.7
c3.4-13.2,13.4-24.2,27.2-28.7l2.8-0.8c11.1-2.7,22.3-0.5,31.4,5.2c4.6,3,10,3.7,15.4,2.1c11-3.2,16-14.6,13.2-24.2
C338.6,45,336.1,41.3,332.1,38.6z" style="stroke-dasharray: 553, 555; stroke-dashoffset: 0;"></path>
        </g>
        <g>
            <path fill="none" stroke-width="10" stroke="#4b3621" d="M625.3,38.6c-0.4-0.2-1-0.5-1.3-0.7c-18-11.2-39.3-14.5-59.9-9.6c-1.5,0.4-3.1,1-4.5,1.5
c-18.3,5.5-33.9,17-44.3,33.7c-8.2,13.3-12.2,28.2-12,43.4c0.2,5.7,0.8,11.5,2,17.1c5,20.5,17.6,38.1,35.7,49.2
c10,6.1,20.8,9.9,31.9,11.1c0.5,0.2,1.2,0.1,1.7,0.2c2.1,0.2,4.5,0,6.7-0.7c10.2-3,16.1-13.6,13.2-23.9
c-2.2-7.7-8.7-12.9-15.9-13.9c-0.3-0.1-0.5,0-0.6,0c-16.6-1.9-31-14-35.1-31.1c-1.6-6.8-1.3-13.4,0.3-19.7
c3.4-13.2,13.4-24.2,27.2-28.7l2.8-0.8c11.1-2.7,22.3-0.5,31.4,5.2c4.6,3,10,3.7,15.4,2.1c11-3.2,16-14.6,13.2-24.2
C631.8,45,629.3,41.3,625.3,38.6z" style="stroke-dasharray: 553, 555; stroke-dashoffset: 0;"></path>
        </g>
        <path fill="none" stroke-width="10" stroke="#4b3621" d="M579.3,111h76.8c9.6,0,17.4,7.8,17.4,17.4v576.1c0,9.6-7.8,17.4-17.4,17.4H77.3c-9.6,0-17.4-7.8-17.4-17.4
V128.4c0-9.6,7.8-17.4,17.4-17.4h106.6" style="stroke-dasharray: 2024, 2026; stroke-dashoffset: 0;"></path>
        <path fill="none" stroke-width="10" stroke="#4b3621" d="M288.6,111L475.5,111" style="stroke-dasharray: 187, 189; stroke-dashoffset: 0;"></path>
        <path fill="none" stroke-width="10" stroke="#4b3621" d="M657.7,111.1L657.7,111.1l0.3,0c9.7-0.9,18,6.2,18.9,15.9l48.9,574c0.8,9.7-6.3,18-15.9,18.9l-538.3,45.9
l-38.3,3.2c-9.7,0.8-18.1-6.3-18.9-15.9l-2.7-31.2" style="stroke-dasharray: 1269, 1271; stroke-dashoffset: 0;"></path>
        <path fill="none" stroke-width="10" stroke="#4b3621" d="M171.7,765.8l6.5,35.6c1.7,9.6,10.8,15.8,20.3,14.1l569.2-104.7c9.4-1.7,15.8-10.8,14-20.3L677.6,123.9
c-1.7-9.4-10.8-15.7-20.3-14l-5.8,1.1l0-0.1" style="stroke-dasharray: 1280, 1282; stroke-dashoffset: 0;"></path>
        <path fill="none" stroke-width="10" stroke="#4b3621" d="M59.9,238L489.3,238" style="stroke-dasharray: 430, 432; stroke-dashoffset: 0;"></path>
        <path fill="none" stroke-width="10" stroke="#4b3621" d="M586,238L673.5,238" style="stroke-dasharray: 88, 90; stroke-dashoffset: 0;"></path>
        <path fill="none" stroke-width="10" stroke="#4b3621" d="M364.5,641.2l148.9-140.9l-1.8,0c17.7-18.9,28.7-44.1,28.7-72c0-58.3-47.3-105.6-105.6-105.6
c-26,0-49.5,9.7-67.9,25.3c-18.4-15.6-41.9-25.3-67.9-25.3c-58.3,0-105.6,47.3-105.6,105.6c0,24.2,8.5,46.3,22.2,64.1l0,0
L364.5,641.2" style="stroke-dasharray: 1046, 1048; stroke-dashoffset: 0;"></path>
    </g>
</svg>